<svg width="453" height="345" viewBox="0 0 453 345" fill="none" xmlns="http://www.w3.org/2000/svg">
<g id="logo">
<g id="gear">
<path id="Vector" d="M369.076 98.7274C375.402 98.7274 380.53 94.1485 380.53 88.5001C380.53 82.8518 375.402 78.2729 369.076 78.2729C362.749 78.2729 357.621 82.8518 357.621 88.5001C357.621 94.1485 362.749 98.7274 369.076 98.7274Z" stroke="#FFCD6B" stroke-width="2" stroke-linecap="round" stroke-linejoin="round"/>
<path id="Vector_2" d="M361.439 119.182C361.439 120.99 362.244 122.724 363.676 124.003C365.108 125.282 367.05 126 369.076 126C371.101 126 373.043 125.282 374.475 124.003C375.908 122.724 376.712 120.99 376.712 119.182C376.742 118.009 377.148 116.869 377.881 115.896C378.615 114.923 379.645 114.158 380.85 113.692C382.056 113.226 383.385 113.078 384.682 113.265C385.979 113.453 387.188 113.968 388.167 114.75C388.843 115.377 389.652 115.878 390.546 116.226C391.44 116.574 392.402 116.761 393.377 116.777C394.352 116.793 395.321 116.637 396.229 116.319C397.136 116 397.965 115.525 398.667 114.921C399.369 114.316 399.93 113.594 400.32 112.796C400.709 111.998 400.919 111.139 400.937 110.268C400.954 109.398 400.78 108.533 400.423 107.722C400.066 106.912 399.534 106.172 398.857 105.546C397.997 104.694 397.422 103.644 397.196 102.515C396.971 101.386 397.104 100.223 397.581 99.1579C398.058 98.0931 398.86 97.1689 399.895 96.4902C400.931 95.8116 402.159 95.4056 403.439 95.3183C405.465 95.3183 407.407 94.6 408.839 93.3213C410.271 92.0427 411.076 90.3084 411.076 88.5001C411.076 86.6918 410.271 84.9576 408.839 83.679C407.407 82.4003 405.465 81.682 403.439 81.682C402.159 81.5947 400.931 81.1887 399.895 80.51C398.86 79.8314 398.058 78.9072 397.581 77.8424C397.104 76.7775 396.971 75.6146 397.196 74.4856C397.422 73.3565 397.997 72.3065 398.857 71.4547C400.174 70.1889 400.873 68.508 400.802 66.7818C400.73 65.0556 399.893 63.4255 398.476 62.2501C397.058 61.0747 395.175 60.4503 393.242 60.5143C391.309 60.5782 389.483 61.3252 388.167 62.591C387.164 63.3931 385.919 63.9145 384.587 64.0905C383.255 64.2665 381.895 64.0893 380.675 63.5809C379.455 63.0725 378.429 62.2554 377.724 61.2309C377.02 60.2065 376.668 59.0198 376.712 57.8183C376.712 56.01 375.908 54.2758 374.475 52.9971C373.043 51.7185 371.101 51.0001 369.076 51.0001C367.05 51.0001 365.108 51.7185 363.676 52.9971C362.244 54.2758 361.439 56.01 361.439 57.8183C361.484 59.0198 361.132 60.2065 360.427 61.2309C359.723 62.2554 358.697 63.0725 357.477 63.5809C356.257 64.0893 354.896 64.2665 353.564 64.0905C352.232 63.9145 350.988 63.3931 349.985 62.591C349.333 61.9643 348.549 61.4583 347.678 61.102C346.808 60.7456 345.867 60.5459 344.909 60.5143C342.976 60.4503 341.093 61.0747 339.676 62.2501C338.258 63.4255 337.421 65.0556 337.35 66.7818C337.278 68.508 337.977 70.1889 339.294 71.4547C340.154 72.3065 340.729 73.3565 340.955 74.4856C341.181 75.6146 341.047 76.7775 340.57 77.8424C340.093 78.9072 339.292 79.8314 338.256 80.51C337.221 81.1887 335.993 81.5947 334.712 81.682C332.687 81.682 330.744 82.4003 329.312 83.679C327.88 84.9576 327.076 86.6918 327.076 88.5001C327.076 90.3084 327.88 92.0427 329.312 93.3213C330.744 94.6 332.687 95.3183 334.712 95.3183C335.993 95.4056 337.221 95.8116 338.256 96.4902C339.292 97.1689 340.093 98.0931 340.57 99.1579C341.047 100.223 341.181 101.386 340.955 102.515C340.729 103.644 340.154 104.694 339.294 105.546C337.927 106.811 337.179 108.51 337.215 110.268C337.251 112.027 338.067 113.7 339.485 114.921C340.902 116.141 342.805 116.809 344.774 116.777C346.743 116.745 348.618 116.016 349.985 114.75C350.964 113.968 352.173 113.453 353.469 113.265C354.766 113.078 356.096 113.226 357.301 113.692C358.506 114.158 359.537 114.923 360.27 115.896C361.003 116.869 361.409 118.009 361.439 119.182Z" stroke="#FFCD6B" stroke-width="2" stroke-linecap="round" stroke-linejoin="round"/>
</g>
<path id="bulb-base" d="M403.698 281.688C401.356 281.947 394.589 283.249 389.523 283.714C387.573 283.893 385.018 284.434 382.133 284.76C379.524 285.054 369.916 285.219 363.893 285.609C360.925 285.801 358.862 286.262 356.699 286.46C355.035 286.612 352.719 287.305 349.316 287.702C346.474 288.032 343.956 289.008 341.728 289.467C339.794 289.865 338.198 290.185 336.366 290.512C335.503 290.666 335.185 291.883 334.793 292.795C333.912 294.843 335.444 298.916 336.615 301.297C337.708 303.52 342.105 302.345 343.74 303.259C346.175 304.619 350.075 304.306 358.489 304.375C361.754 304.401 363.546 303.655 365.64 303.265C367.887 302.846 370.473 302.219 374.59 302.021C377.056 301.902 380.405 300.784 383.812 300.452C386.051 300.234 388.909 299.607 391.463 299.275C392.581 299.13 396.213 298.948 400.92 299.919C402.754 300.297 402.521 302.831 402.391 304.026C402.122 306.509 401.085 307.962 400.236 309.923C399.404 311.844 398.732 313.065 398.145 313.848C397.838 314.258 397.429 314.63 392.828 314.83C388.227 315.031 379.424 315.031 374.696 315.095C368.135 315.185 364.746 315.941 361.931 316.533C359.544 317.035 355.598 317.643 352.778 318.492C351.67 318.826 350.617 318.953 349.573 319.147C348.398 319.366 347.867 320.518 347.671 321.366C347.182 323.476 348.647 325.614 348.91 327.185C349.2 328.917 350.475 330.321 351.978 331.957C353.733 333.868 355.7 335.287 357.405 336.601C358.9 337.754 360.8 338.433 362.894 339.282C364.796 340.053 367.201 340.135 369.496 340.461C372.674 340.912 374.27 339.876 375.841 339.288C377.575 338.639 379.236 337.264 380.941 336.152C382.915 334.863 383.951 332.69 384.475 331.119C385.013 329.505 385.912 327.983 387.087 325.761C388.045 323.949 389.568 321.84 390.814 319.81C391.141 319.349 391.53 318.961 391.73 318.178C391.93 317.396 391.93 316.231 391.93 315.031" stroke="white" stroke-width="8" stroke-linecap="round"/>
<path id="bulb-outline" d="M349.076 173.211C351.396 181.841 354.736 192.511 357.566 208.611C364.131 245.962 355.076 250.201 354.581 251.701C353.454 255.115 345.776 254.531 334.456 257.701C331.506 258.527 328.796 258.211 327.436 257.551C321.475 254.659 320.116 235.971 316.421 225.246C312.52 213.924 310.416 208.911 307.591 202.906C302.468 192.017 300.096 184.591 297.086 179.226C294.506 174.629 291.416 170.231 288.586 166.226C286.178 162.819 285.416 158.231 283.251 153.896C280.627 148.644 281.076 143.571 280.246 136.751C278.248 120.335 279.076 107.651 280.736 95.5812C282.195 84.9701 282.076 78.2512 283.901 73.2262C285.555 68.6717 290.056 64.2312 293.066 60.2262C296.672 55.4272 300.396 48.5712 302.401 44.0612C304.788 38.6903 309.716 35.8912 313.896 33.0562C317.609 30.5378 328.316 19.3112 336.061 12.3862C339.25 9.53444 346.696 8.2312 356.376 5.3862C366.331 2.46018 380.056 4.8712 384.226 6.2062C389.398 7.86226 394.056 10.5312 398.061 13.0362C402.169 15.6057 407.056 18.5312 413.206 22.6812C430.427 34.3025 432.056 41.1912 434.901 45.1962C437.537 48.9078 440.396 53.1912 442.071 57.1962C443.744 61.1976 445.736 65.1912 447.071 69.3612C448.874 74.9955 448.736 81.1912 448.911 115.906C448.964 126.564 447.416 131.851 445.416 138.681C442.82 147.543 443.076 155.831 442.081 162.026C441.335 166.665 439.416 171.191 437.251 175.196C435.216 178.96 433.756 183.191 431.086 188.026C428.772 192.216 426.756 196.191 425.081 201.026C423.609 205.273 421.416 209.191 420.746 213.196C419.885 218.339 417.076 224.511 414.586 234.506C412.943 241.101 410.756 245.191 409.081 249.196C408.269 251.136 407.416 253.201 405.921 254.866C403.125 257.98 398.096 259.851 393.596 262.871C388.161 266.518 383.096 264.871 379.091 265.541C374.204 266.359 367.776 267.871 361.606 269.871C355.156 270.211 349.756 270.541 343.961 271.041C339.486 271.211 331.896 271.211 323.076 272.211" stroke="white" stroke-width="8" stroke-linecap="round"/>
<path id="learning-path" d="M27.0961 275.947C28.1205 279.02 29.1449 282.093 31.7059 284.412C34.8272 287.237 38.634 290.058 41.7188 292.626C43.041 293.727 46.8369 293.662 51.4544 293.408C56.4012 293.136 59.4301 288.024 61.8755 285.201C64.4531 282.226 65.3454 279.043 65.8615 274.553C66.3498 270.304 67.918 265.457 68.5572 261.197C69.1186 257.457 70.737 254.396 71.3801 251.184C72.3397 246.392 73.8179 242.073 74.3339 238.349C74.8233 234.817 76.8988 232.06 78.0541 228.975C79.2847 225.689 81.2582 222.817 82.5484 219.093C83.6535 215.903 85.1094 212.804 86.2724 209.719C87.4717 206.538 88.4521 202.791 89.4804 199.706C90.5086 196.622 91.533 193.548 92.0491 189.824C92.5899 185.922 94.3521 181.995 95.6422 178.91C96.9902 175.687 97.1865 171.474 97.9529 168.127C98.8845 164.059 99.2353 158.888 100.776 155.037C102.222 151.423 102.825 148.105 103.988 144.893C105.264 141.37 104.889 138.092 106.167 135.008C107.385 132.07 108.986 128.85 110.916 125.765C112.658 122.98 114.131 119.869 114.898 116.522C115.624 113.353 117.459 110.364 119.515 107.28C121.497 104.307 123.867 100.613 127.214 98.6723C130.76 96.6153 135.682 98.2718 143.242 98.9226C144.931 99.068 145.695 99.3039 146.215 99.816C148.507 102.074 149.3 105.712 151.607 108.158C153.894 110.582 154.691 114.185 155.72 117.269C156.776 120.439 158.543 123.427 160.337 126.512C162.134 129.6 163.164 132.67 164.319 136.521C165.624 140.871 168.294 144.732 170.35 148.078C172.221 151.122 173.685 154.236 175.742 157.96C177.524 161.187 178.568 164.249 179.724 167.973C180.798 171.435 182.928 174.262 184.345 177.474C186.039 181.313 187.811 184.783 189.479 188.769C190.834 192.01 192.432 195.058 193.334 198.143C194.217 201.167 196.022 204.809 197.439 208.156C198.763 211.282 199.364 214.314 200.52 217.526C201.982 221.589 203.216 225.097 204.117 228.182C205.07 231.445 206.296 235.11 207.452 238.322C208.835 242.166 210.148 245.123 211.176 248.207C212.204 251.292 212.72 269.108 211.827 279.787C211.678 281.558 209.901 282.871 208.75 284.281C207.598 285.69 204.779 285.96 201.702 285.706C197.785 285.382 195.791 280.584 193.091 277.245C189.477 272.776 186.81 269.801 184.742 266.716C182.413 263.243 180.371 260.558 178.838 257.473C177.248 254.274 175.503 251.315 174.086 247.591C172.674 243.882 170.62 240.532 168.186 237.447C165.843 234.479 163.95 231.289 161.893 228.078C159.476 224.303 157.788 220.506 150.236 212.692C145.162 207.443 140.35 203.577 135.84 199.194C132.117 195.576 127.241 191.746 124.156 189.817C121.279 188.017 117.49 186.863 113.508 185.962C107.351 184.569 103.626 185.061 100.279 184.421C97.2255 183.838 94.121 183.012 91.0362 181.984C84.6913 179.869 74.0952 182.226 71.0104 183.516C68.0106 184.771 64.8525 186.077 62.6612 188.9C60.6405 191.503 59.9692 195.058 57.7857 198.016C55.7332 200.796 53.8074 203.531 52.0051 207.124C49.3523 212.412 54.3004 216.624 55.7176 219.709C57.3267 223.212 59.1836 226.637 61.4904 229.722C63.6936 232.668 65.5919 236.142 68.0373 238.838C70.8527 241.941 74.8346 244.106 77.9193 245.774C80.9625 247.419 84.8475 247.187 95.8578 247.195C103.291 247.2 109.741 243.86 114.116 242.192C117.956 240.728 121.048 238.73 124.772 237.313C128.275 235.98 131.061 233.847 134.4 231.671C139.215 228.533 141.336 225.898 144.798 222.301C147.547 219.445 151.087 217.425 154.811 214.468C157.973 211.957 161.608 208.953 165.594 205.483C168.329 203.102 171.374 201.251 174.837 198.166C178.035 195.316 180.617 192.778 183.952 190.333C186.96 188.128 189.598 185.076 192.683 183.27C196.011 181.321 198.841 179.423 201.925 177.366C205.01 175.31 208.083 172.752 211.168 171.073C214.25 169.396 217.326 168.378 221.689 167.862C226.207 167.327 231.19 166.067 247.7 166.059C253.674 166.056 256.608 168.362 259.692 170.419C262.777 172.475 266.359 174.016 269.705 175.171C272.914 176.279 275.863 177.605 278.948 178.895C281.948 180.15 285.106 181.964 288.318 183.389C291.743 184.909 295.627 184.29 299.101 185.057C303.117 185.943 306.672 187.109 318.068 187.244C322.897 187.301 325.928 185.584 329.012 184.421C331.96 183.31 335.17 181.733 338.255 179.677C341.295 177.65 343.643 175.31 346.855 173.515C350.683 171.376 353.656 169.148 356.741 166.587C359.962 163.913 361.882 161.199 364.316 157.475C366.525 154.095 369.83 151.186 372.149 148.101C374.344 145.18 376.516 142.714 377.032 139.629C377.601 136.228 379.597 133.471 379.986 130.386C381.074 121.754 380.121 107.283 378.326 104.199C377.397 102.602 375.253 101.876 371.406 100.598C367.768 99.389 364.462 100.082 363.053 100.078C361.516 100.074 361.373 106.452 361.755 113.638C362.136 116.249 362.898 116.757 364.943 117.019C366.988 117.281 370.293 117.281 373.697 117.281" stroke="white" stroke-width="8" stroke-linecap="round"/>
<path id="play-button" d="M60.9483 240.164L15.1921 267.451L15.8635 211.782L60.9483 240.164Z" fill="#D9D9D9"/>
</g>
</svg>
