<svg xmlns="http://www.w3.org/2000/svg" viewBox="0 0 450 120" width="450" height="120">
  <rect width="450" height="120" fill="#ffffff" />
  <rect x="10" y="10" width="100" height="100" fill="none" stroke="#000" stroke-width="3" /><rect x="120" y="10" width="100" height="100" fill="none" stroke="#000" stroke-width="3" /><rect x="230" y="10" width="100" height="100" fill="none" stroke="#000" stroke-width="3" /><rect x="340" y="10" width="100" height="100" fill="none" stroke="#000" stroke-width="3" /><g transform="translate(10, 10)"><circle cx="30" cy="30" r="8" fill="none" stroke="#bdc3c7" stroke-width="2"/><circle cx="70" cy="30" r="10" fill="#8e44ad"/><circle cx="70" cy="70" r="8" fill="#e74c3c"/><circle cx="30" cy="70" r="8" fill="none" stroke="#bdc3c7" stroke-width="2"/></g><g transform="translate(120, 10)"><circle cx="30" cy="30" r="8" fill="none" stroke="#bdc3c7" stroke-width="2"/><circle cx="70" cy="30" r="8" fill="none" stroke="#bdc3c7" stroke-width="2"/><circle cx="70" cy="70" r="10" fill="#8e44ad"/><circle cx="30" cy="70" r="8" fill="none" stroke="#bdc3c7" stroke-width="2"/></g><g transform="translate(230, 10)"><circle cx="30" cy="30" r="8" fill="none" stroke="#bdc3c7" stroke-width="2"/><circle cx="70" cy="30" r="8" fill="none" stroke="#bdc3c7" stroke-width="2"/><circle cx="70" cy="70" r="8" fill="#e74c3c"/><circle cx="30" cy="70" r="10" fill="#8e44ad"/></g><text x="390" y="75" font-family="Arial" font-size="40" text-anchor="middle" font-weight="bold" fill="#555">?</text>
</svg>