<svg xmlns="http://www.w3.org/2000/svg" viewBox="0 0 450 120" width="450" height="120">
  <rect width="450" height="120" fill="#ffffff" />
  <rect x="10" y="10" width="100" height="100" fill="none" stroke="#000" stroke-width="3" /><rect x="120" y="10" width="100" height="100" fill="none" stroke="#000" stroke-width="3" /><rect x="230" y="10" width="100" height="100" fill="none" stroke="#000" stroke-width="3" /><rect x="340" y="10" width="100" height="100" fill="none" stroke="#000" stroke-width="3" /><g transform="translate(10, 10)"><polygon points="50,20 75,70 25,70" fill="#3498db"/><g transform="translate(10,50.00000000000001) rotate(180)"><path d="M-8,-8 L8,0 L-8,8 Z" fill="#000"/></g></g><g transform="translate(120, 10)"><rect x="30" y="30" width="40" height="40" fill="#e74c3c"/><g transform="translate(49.99999999999999,10) rotate(270)"><path d="M-8,-8 L8,0 L-8,8 Z" fill="#000"/></g></g><g transform="translate(230, 10)"><polygon points="50,20 75,40 65,70 35,70 25,40" fill="#2ecc71"/><g transform="translate(90,49.99999999999999) rotate(360)"><path d="M-8,-8 L8,0 L-8,8 Z" fill="#000"/></g></g><text x="390" y="75" font-family="Arial" font-size="40" text-anchor="middle" font-weight="bold" fill="#555">?</text>
</svg>