<svg xmlns="http://www.w3.org/2000/svg" viewBox="0 0 450 120" width="450" height="120">
  <rect width="450" height="120" fill="#ffffff" />
  <rect x="10" y="10" width="100" height="100" fill="none" stroke="#000" stroke-width="3" /><rect x="120" y="10" width="100" height="100" fill="none" stroke="#000" stroke-width="3" /><rect x="230" y="10" width="100" height="100" fill="none" stroke="#000" stroke-width="3" /><rect x="340" y="10" width="100" height="100" fill="none" stroke="#000" stroke-width="3" /><g transform="translate(10, 10)"><g transform="translate(50,50) rotate(330)"><rect x="-35" y="-35" width="70" height="70" fill="none" stroke="#e67e22" stroke-width="4"/></g><g transform="translate(50,50) rotate(300)"><path d="M0,-20 L15,10 L-15,10 Z" fill="#2980b9"/></g></g><g transform="translate(120, 10)"><g transform="translate(50,50) rotate(375)"><rect x="-35" y="-35" width="70" height="70" fill="none" stroke="#e67e22" stroke-width="4"/></g><g transform="translate(50,50) rotate(210)"><path d="M0,-20 L15,10 L-15,10 Z" fill="#2980b9"/></g></g><g transform="translate(230, 10)"><g transform="translate(50,50) rotate(420)"><rect x="-35" y="-35" width="70" height="70" fill="none" stroke="#e67e22" stroke-width="4"/></g><g transform="translate(50,50) rotate(120)"><path d="M0,-20 L15,10 L-15,10 Z" fill="#2980b9"/></g></g><text x="390" y="75" font-family="Arial" font-size="40" text-anchor="middle" font-weight="bold" fill="#555">?</text>
</svg>