<svg xmlns="http://www.w3.org/2000/svg" viewBox="0 0 220 220" width="220" height="220">
  <rect width="220" height="220" fill="#ffffff" />
  <rect x="10" y="10" width="200" height="200" fill="none" stroke="#000" stroke-width="4" />
<line x1="110" y1="10" x2="110" y2="210" stroke="#000" stroke-width="2" />
<line x1="10" y1="110" x2="210" y2="110" stroke="#000" stroke-width="2" /><g transform="translate(10, 10)"><rect x="0" y="50" width="50" height="50" fill="#e74c3c" /><line x1="50" y1="0" x2="50" y2="100" stroke="#000" stroke-width="1"/><line x1="0" y1="50" x2="100" y2="50" stroke="#000" stroke-width="1"/></g><g transform="translate(110, 10)"><rect x="0" y="50" width="50" height="50" fill="#e74c3c" /><rect x="50" y="50" width="50" height="50" fill="#e74c3c" /><line x1="50" y1="0" x2="50" y2="100" stroke="#000" stroke-width="1"/><line x1="0" y1="50" x2="100" y2="50" stroke="#000" stroke-width="1"/></g><g transform="translate(10, 110)"><rect x="50" y="0" width="50" height="50" fill="#e74c3c" /><rect x="0" y="50" width="50" height="50" fill="#e74c3c" /><rect x="50" y="50" width="50" height="50" fill="#e74c3c" /><line x1="50" y1="0" x2="50" y2="100" stroke="#000" stroke-width="1"/><line x1="0" y1="50" x2="100" y2="50" stroke="#000" stroke-width="1"/></g><text x="160" y="175" font-family="Arial" font-size="40" text-anchor="middle" font-weight="bold" fill="#555">?</text>
</svg>