<svg xmlns="http://www.w3.org/2000/svg" viewBox="0 0 220 220" width="220" height="220">
  <rect width="220" height="220" fill="#ffffff" />
  <rect x="10" y="10" width="200" height="200" fill="none" stroke="#000" stroke-width="4" />
<line x1="110" y1="10" x2="110" y2="210" stroke="#000" stroke-width="2" />
<line x1="10" y1="110" x2="210" y2="110" stroke="#000" stroke-width="2" /><g transform="translate(10, 10)"><g transform="translate(50,50) rotate(180)"><path d="M-10,20 L10,20 L10,-10 L25,-10 L0,-40 L-25,-10 L-10,-10 Z" fill="#2c3e50"/></g></g><g transform="translate(110, 10)"><g transform="translate(50,50) rotate(270)"><path d="M-10,20 L10,20 L10,-10 L25,-10 L0,-40 L-25,-10 L-10,-10 Z" fill="#2c3e50"/></g></g><g transform="translate(10, 110)"><g transform="translate(50,50) rotate(360)"><path d="M-10,20 L10,20 L10,-10 L25,-10 L0,-40 L-25,-10 L-10,-10 Z" fill="#2c3e50"/></g></g><text x="160" y="175" font-family="Arial" font-size="40" text-anchor="middle" font-weight="bold" fill="#555">?</text>
</svg>