<svg xmlns="http://www.w3.org/2000/svg" viewBox="0 0 220 220" width="220" height="220">
  <rect width="220" height="220" fill="#ffffff" />
  <rect x="10" y="10" width="200" height="200" fill="none" stroke="#000" stroke-width="4" />
<line x1="110" y1="10" x2="110" y2="210" stroke="#000" stroke-width="2" />
<line x1="10" y1="110" x2="210" y2="110" stroke="#000" stroke-width="2" /><g transform="translate(10, 10)"><rect x="5" y="5" width="90" height="90" fill="#34495e" rx="10"/><line x1="50" y1="50" x2="80" y2="50" stroke="#000" stroke-width="4"/><circle cx="20" cy="20" r="8" fill="#fff"/></g><g transform="translate(110, 10)"><rect x="5" y="5" width="90" height="90" fill="#95a5a6" rx="10"/><line x1="50" y1="50" x2="71.21320343559643" y2="71.21320343559643" stroke="#000" stroke-width="4"/><circle cx="80" cy="20" r="8" fill="#fff"/></g><g transform="translate(10, 110)"><rect x="5" y="5" width="90" height="90" fill="#34495e" rx="10"/><line x1="50" y1="50" x2="50" y2="80" stroke="#000" stroke-width="4"/><circle cx="80" cy="80" r="8" fill="#fff"/></g><text x="160" y="175" font-family="Arial" font-size="40" text-anchor="middle" font-weight="bold" fill="#555">?</text>
</svg>